<svg version="1.2" xmlns="http://www.w3.org/2000/svg" viewBox="0 0 1523 255" width="1523" height="255">
	<title>2021-Annual-Report-1-pdf-svg</title>
	<defs>
		<clipPath clipPathUnits="userSpaceOnUse" id="cp1">
			<path d="m-529.35-499.61h4276.76v5322.34h-4276.76z"/>
		</clipPath>
	</defs>
	<style>
		.s0 { fill: #006db6 } 
		.s1 { fill: #65b245 } 
	</style>
	<g id="Clip-Path: Page 1" clip-path="url(#cp1)">
		<g id="Page 1">
			<path id="Path 4" class="s0" d="m622.4 220.8v-69.3l-94.4-100.3h65.4l55.1 58.5 54.8-58.5h66l-94.1 99.1v70.5z"/>
			<path id="Path 6" fill-rule="evenodd" class="s0" d="m1380.7 215h-35.9c0 0-53.6-100.6-54.8-103.2 0.6 3.4 0 110.7 0 110.7h-51.3v-171h71.6l54.5 103.5 59.1-103.5h71.3v171h-56c0 0-0.3-107 0-111zm-390-114.5c0-27.1 22-49 49-49h124.3c27 0 49 21.9 49 49v73c0 27.1-22 49-49 49h-124.3c-27 0-49-21.9-49-49zm58.3 54.4c0 12.7 10.3 23 23 23h60c12.7 0 23-10.3 23-23v-35.7c0-12.7-10.3-23-23-23h-60c-12.7 0-23 10.3-23 23zm-732.5 66.7v-171.3h172.4c27.2 0 49.2 22.3 49.2 49.6v72.2c0 27.5-22 49.5-49.2 49.5zm139.9-44.6c11.9 0 23.8-10.7 23.8-23.8v-34.5c0-13-10.7-23.8-23.8-23.8h-81.7v82.1zm513.5-22.3v18.5c0 27.3-22.4 49.3-49.6 49.3h-110.1c-27.5 0-49.5-22-49.5-49.3v-72.5c0-27.2 22-49.2 49.5-49.2h110.1c27.2 0 49.6 22 49.6 49.2v18.3l-58 0.6c0-13.1-10.7-23.5-23.8-23.5h-45.7c-13.1 0-23.8 10.4-23.8 23.5v34.8c0 13 10.7 23.5 23.8 23.5h45.7c11.9 0 23.8-10.5 23.8-23.5zm540.4-103.5q2.9 0 5.8 1.7 2.9 1.5 4.3 4.4 1.8 2.9 1.8 5.8 0 3.2-1.8 6.1-1.4 2.6-4.3 4.3-2.6 1.5-5.8 1.5-3.2 0-5.8-1.5-2.9-1.7-4.3-4.3-1.8-2.9-1.8-6.1 0-2.9 1.8-5.8 1.4-2.9 4.3-4.4 2.9-1.7 5.8-1.7zm0 2q-2.6 0-4.9 1.5-2.3 1.1-3.5 3.4-1.5 2.4-1.5 5 0 2.6 1.2 4.9 1.5 2.3 3.8 3.8 2.3 1.1 4.9 1.1 2.6 0 4.9-1.1 2.3-1.5 3.8-3.8 1.1-2.3 1.1-4.9 0-2.6-1.4-5-1.2-2.3-3.5-3.4-2.3-1.5-4.9-1.5zm-5.2 16.5v-12.7h4.3q2.3 0 3.2 0.3 1.2 0.3 1.8 1.1 0.5 0.9 0.5 2.1 0 1.4-0.8 2.3-1.2 1.1-2.9 1.1l1.1 0.9q0.9 0.6 2.1 2.3l1.4 2.6h-2.6l-1.2-2q-1.1-2.3-2-2.9-0.6-0.6-1.7-0.6h-1.2v5.5zm2-7.2h2.6q1.8 0 2.4-0.6 0.8-0.6 0.8-1.4l-0.5-0.9-0.9-0.6q-0.3-0.3-2-0.3h-2.4zm-1434 117.7h82.9l-73.9 73.9h-81.4v-102.9l72.4-72.4zm130.7-47.9v-29.5c0-14-11.3-25.6-25.2-25.6h-103.7l71.8-71.8h67c31.8 0 58.5 24 62 55z"/>
			<path id="Path 7" class="s1" d="m275.9 67.1l-187.2 187.3h66.9l120.3-120z"/>
			<path id="Path 8" fill-rule="evenodd" class="s0" d="m268.6 0.2q3.2 0 5.8 1.4 2.9 1.5 4.7 4.4 1.4 2.9 1.4 5.8 0 3.1-1.4 6-1.8 2.7-4.4 4.4-2.9 1.4-6.1 1.4-2.9 0-5.8-1.4-2.9-1.7-4.3-4.4-1.5-2.9-1.5-6 0-2.9 1.5-5.8 1.4-2.9 4.3-4.4 2.9-1.4 5.8-1.4zm0 1.7q-2.3 0-4.6 1.4-2.6 1.2-3.8 3.5-1.4 2.6-1.4 5 0 2.6 1.4 4.9 1.2 2.3 3.5 3.8 2.6 1.1 4.9 1.1 2.6 0 5-1.1 2.3-1.5 3.7-3.8 1.2-2.3 1.2-4.9 0-2.4-1.2-5-1.4-2.3-3.7-3.5-2.4-1.4-5-1.4zm-5.2 16.5v-12.7h4.7q2 0 3.1 0.3 0.9 0.5 1.5 1.4 0.6 0.9 0.6 1.7 0 1.5-0.9 2.4-1.2 1.1-2.6 1.1l0.9 0.9q0.8 0.6 2 2.3l1.4 2.6h-2.3l-1.1-2q-1.5-2.3-2.4-2.9-0.5-0.6-1.4-0.6h-1.2v5.5zm2.1-7.2h2.3q1.7 0 2.6-0.6 0.6-0.3 0.6-1.2l-0.3-1.1-0.9-0.6q-0.6-0.3-2-0.3h-2.3z"/>
		</g>
	</g>
</svg>